<?xml version="1.0" encoding="UTF-8"?>
<svg width="168" height="27" viewBox="0 0 168 27" fill="none" xmlns="http://www.w3.org/2000/svg">
  <path d="M41.2976 5.85995V8.51402H39.1516V20.2161H41.2976V22.84H34.0186V20.2161H36.2226V8.51402H34.0186V5.85995H41.2976Z" fill="#8B5CF6"/>
  <path d="M44.9206 5.85995H50.0826L53.9106 21.513H53.9686L57.7676 5.85995H62.9006V22.84H59.8266L60.0296 7.24731H60.0006L56.0856 22.84H51.7356L47.8786 7.24731H47.8206L47.9946 22.84H44.9206V5.85995Z" fill="#8B5CF6"/>
  <path d="M68.0864 7.85995C68.0864 6.75995 68.9864 5.85995 70.0864 5.85995H77.0864C78.1864 5.85995 79.0864 6.75995 79.0864 7.85995V20.84C79.0864 21.94 78.1864 22.84 77.0864 22.84H70.0864C68.9864 22.84 68.0864 21.94 68.0864 20.84V7.85995Z" fill="#8B5CF6"/>
  <path d="M82.0864 5.85995H87.0864C89.8464 5.85995 92.0864 8.09995 92.0864 10.86V17.84C92.0864 20.6 89.8464 22.84 87.0864 22.84H82.0864V5.85995ZM87.0864 20.24C88.4664 20.24 89.5864 19.12 89.5864 17.74V10.96C89.5864 9.57995 88.4664 8.45995 87.0864 8.45995H84.5864V20.24H87.0864Z" fill="#8B5CF6"/>
  <path d="M97.0865 5.85995V22.84H94.5865V5.85995H97.0865Z" fill="#8B5CF6"/>
  <path d="M102.587 22.84L97.5865 5.85995H100.287L103.787 19.14H103.887L107.387 5.85995H110.087L105.087 22.84H102.587Z" fill="#8B5CF6"/>
  <circle cx="13.5" cy="13.5" r="13.5" fill="url(#paint0_linear_2164_2166)"/>
  <defs>
    <linearGradient id="paint0_linear_2164_2166" x1="0" y1="0" x2="27" y2="27" gradientUnits="userSpaceOnUse">
      <stop stop-color="#8B5CF6"/>
      <stop offset="1" stop-color="#6366F1"/>
    </linearGradient>
  </defs>
</svg>
